<svg width="125" height="19" viewBox="0 0 125 19" fill="none" xmlns="http://www.w3.org/2000/svg">
<path d="M15.56 18H11.456L4.592 7.608V18H0.488V1.152H4.592L11.456 11.592V1.152H15.56V18ZM24.6309 18.192C23.3189 18.192 22.1349 17.912 21.0789 17.352C20.0389 16.792 19.2149 15.992 18.6069 14.952C18.0149 13.912 17.7189 12.696 17.7189 11.304C17.7189 9.928 18.0229 8.72 18.6309 7.68C19.2389 6.624 20.0709 5.816 21.1269 5.256C22.1829 4.696 23.3669 4.416 24.6789 4.416C25.9909 4.416 27.1749 4.696 28.2309 5.256C29.2869 5.816 30.1189 6.624 30.7269 7.68C31.3349 8.72 31.6389 9.928 31.6389 11.304C31.6389 12.68 31.3269 13.896 30.7029 14.952C30.0949 15.992 29.2549 16.792 28.1829 17.352C27.1269 17.912 25.9429 18.192 24.6309 18.192ZM24.6309 14.64C25.4149 14.64 26.0789 14.352 26.6229 13.776C27.1829 13.2 27.4629 12.376 27.4629 11.304C27.4629 10.232 27.1909 9.408 26.6469 8.832C26.1189 8.256 25.4629 7.968 24.6789 7.968C23.8789 7.968 23.2149 8.256 22.6869 8.832C22.1589 9.392 21.8949 10.216 21.8949 11.304C21.8949 12.376 22.1509 13.2 22.6629 13.776C23.1909 14.352 23.8469 14.64 24.6309 14.64ZM33.0001 11.28C33.0001 9.904 33.2561 8.696 33.7681 7.656C34.2961 6.616 35.0081 5.816 35.9041 5.256C36.8001 4.696 37.8001 4.416 38.9041 4.416C39.7841 4.416 40.5841 4.6 41.3041 4.968C42.0401 5.336 42.6161 5.832 43.0321 6.456V0.24H47.1361V18H43.0321V16.08C42.6481 16.72 42.0961 17.232 41.3761 17.616C40.6721 18 39.8481 18.192 38.9041 18.192C37.8001 18.192 36.8001 17.912 35.9041 17.352C35.0081 16.776 34.2961 15.968 33.7681 14.928C33.2561 13.872 33.0001 12.656 33.0001 11.28ZM43.0321 11.304C43.0321 10.28 42.7441 9.472 42.1681 8.88C41.6081 8.288 40.9201 7.992 40.1041 7.992C39.2881 7.992 38.5921 8.288 38.0161 8.88C37.4561 9.456 37.1761 10.256 37.1761 11.28C37.1761 12.304 37.4561 13.12 38.0161 13.728C38.5921 14.32 39.2881 14.616 40.1041 14.616C40.9201 14.616 41.6081 14.32 42.1681 13.728C42.7441 13.136 43.0321 12.328 43.0321 11.304ZM62.7292 11.088C62.7292 11.472 62.7052 11.872 62.6572 12.288H53.3692C53.4332 13.12 53.6972 13.76 54.1612 14.208C54.6412 14.64 55.2252 14.856 55.9132 14.856C56.9372 14.856 57.6492 14.424 58.0492 13.56H62.4172C62.1932 14.44 61.7852 15.232 61.1932 15.936C60.6172 16.64 59.8892 17.192 59.0092 17.592C58.1292 17.992 57.1452 18.192 56.0572 18.192C54.7452 18.192 53.5772 17.912 52.5532 17.352C51.5292 16.792 50.7292 15.992 50.1532 14.952C49.5772 13.912 49.2892 12.696 49.2892 11.304C49.2892 9.912 49.5692 8.696 50.1292 7.656C50.7052 6.616 51.5052 5.816 52.5292 5.256C53.5532 4.696 54.7292 4.416 56.0572 4.416C57.3532 4.416 58.5052 4.688 59.5132 5.232C60.5212 5.776 61.3052 6.552 61.8652 7.56C62.4412 8.568 62.7292 9.744 62.7292 11.088ZM58.5292 10.008C58.5292 9.304 58.2892 8.744 57.8092 8.328C57.3292 7.912 56.7292 7.704 56.0092 7.704C55.3212 7.704 54.7372 7.904 54.2572 8.304C53.7932 8.704 53.5052 9.272 53.3932 10.008H58.5292Z" fill="#1DCB19"/>
<path d="M75.0943 9.36C76.0703 9.568 76.8543 10.056 77.4463 10.824C78.0383 11.576 78.3343 12.44 78.3343 13.416C78.3343 14.824 77.8383 15.944 76.8463 16.776C75.8703 17.592 74.5023 18 72.7423 18H64.8943V1.152H72.4783C74.1903 1.152 75.5263 1.544 76.4863 2.328C77.4623 3.112 77.9503 4.176 77.9503 5.52C77.9503 6.512 77.6863 7.336 77.1583 7.992C76.6463 8.648 75.9583 9.104 75.0943 9.36ZM68.9983 7.968H71.6863C72.3583 7.968 72.8703 7.824 73.2223 7.536C73.5903 7.232 73.7743 6.792 73.7743 6.216C73.7743 5.64 73.5903 5.2 73.2223 4.896C72.8703 4.592 72.3583 4.44 71.6863 4.44H68.9983V7.968ZM72.0223 14.688C72.7103 14.688 73.2383 14.536 73.6063 14.232C73.9903 13.912 74.1823 13.456 74.1823 12.864C74.1823 12.272 73.9823 11.808 73.5823 11.472C73.1983 11.136 72.6623 10.968 71.9743 10.968H68.9983V14.688H72.0223ZM86.8106 18.192C85.4986 18.192 84.3146 17.912 83.2586 17.352C82.2186 16.792 81.3946 15.992 80.7866 14.952C80.1946 13.912 79.8986 12.696 79.8986 11.304C79.8986 9.928 80.2026 8.72 80.8106 7.68C81.4186 6.624 82.2506 5.816 83.3066 5.256C84.3626 4.696 85.5466 4.416 86.8586 4.416C88.1706 4.416 89.3546 4.696 90.4106 5.256C91.4666 5.816 92.2986 6.624 92.9066 7.68C93.5146 8.72 93.8186 9.928 93.8186 11.304C93.8186 12.68 93.5066 13.896 92.8826 14.952C92.2746 15.992 91.4346 16.792 90.3626 17.352C89.3066 17.912 88.1226 18.192 86.8106 18.192ZM86.8106 14.64C87.5946 14.64 88.2586 14.352 88.8026 13.776C89.3626 13.2 89.6426 12.376 89.6426 11.304C89.6426 10.232 89.3706 9.408 88.8266 8.832C88.2986 8.256 87.6426 7.968 86.8586 7.968C86.0586 7.968 85.3946 8.256 84.8666 8.832C84.3386 9.392 84.0746 10.216 84.0746 11.304C84.0746 12.376 84.3306 13.2 84.8426 13.776C85.3706 14.352 86.0266 14.64 86.8106 14.64ZM102.092 18.192C100.78 18.192 99.5958 17.912 98.5398 17.352C97.4998 16.792 96.6758 15.992 96.0678 14.952C95.4758 13.912 95.1798 12.696 95.1798 11.304C95.1798 9.928 95.4838 8.72 96.0918 7.68C96.6998 6.624 97.5318 5.816 98.5878 5.256C99.6438 4.696 100.828 4.416 102.14 4.416C103.452 4.416 104.636 4.696 105.692 5.256C106.748 5.816 107.58 6.624 108.188 7.68C108.796 8.72 109.1 9.928 109.1 11.304C109.1 12.68 108.788 13.896 108.164 14.952C107.556 15.992 106.716 16.792 105.644 17.352C104.588 17.912 103.404 18.192 102.092 18.192ZM102.092 14.64C102.876 14.64 103.54 14.352 104.084 13.776C104.644 13.2 104.924 12.376 104.924 11.304C104.924 10.232 104.652 9.408 104.108 8.832C103.58 8.256 102.924 7.968 102.14 7.968C101.34 7.968 100.676 8.256 100.148 8.832C99.6198 9.392 99.3558 10.216 99.3558 11.304C99.3558 12.376 99.6118 13.2 100.124 13.776C100.652 14.352 101.308 14.64 102.092 14.64ZM119.461 18L115.381 12.384V18H111.277V0.24H115.381V10.056L119.437 4.608H124.501L118.933 11.328L124.549 18H119.461Z" fill="black"/>
</svg>
